<svg width="60" height="24" viewBox="0 0 60 24" fill="none" xmlns="http://www.w3.org/2000/svg">
<mask id="mask0_4_278" style="mask-type:alpha" maskUnits="userSpaceOnUse" x="0" y="0" width="60" height="24">
<rect width="60" height="24" rx="4" fill="#D9D9D9"/>
</mask>
<g mask="url(#mask0_4_278)">
<rect width="60" height="24" rx="4" fill="#FF0000"/>
<path d="M16.0156 14.5938H11.7422V12.8672H16.0156V14.5938ZM18.375 17.7109V15.6016C19.1406 16.0703 19.9557 16.3047 20.8203 16.3047C21.4714 16.3047 21.9792 16.151 22.3438 15.8438C22.7135 15.5312 22.8984 15.1094 22.8984 14.5781C22.8984 13.4688 22.1146 12.9141 20.5469 12.9141C20.0365 12.9141 19.4193 12.9609 18.6953 13.0547V6.79688H24.8984V8.8125H20.8047V11.0547C21.1328 11.0234 21.4427 11.0078 21.7344 11.0078C22.8854 11.0078 23.7865 11.3099 24.4375 11.9141C25.0885 12.5182 25.4141 13.3307 25.4141 14.3516C25.4141 15.4818 25.026 16.4062 24.25 17.125C23.474 17.8385 22.4219 18.1953 21.0938 18.1953C20.0156 18.1953 19.1094 18.0339 18.375 17.7109ZM30.8438 18.1953C28.1771 18.1953 26.8438 16.3229 26.8438 12.5781C26.8438 10.6354 27.2031 9.15625 27.9219 8.14062C28.6458 7.11979 29.6927 6.60938 31.0625 6.60938C33.6667 6.60938 34.9688 8.51302 34.9688 12.3203C34.9688 14.2161 34.612 15.6693 33.8984 16.6797C33.1901 17.6901 32.1719 18.1953 30.8438 18.1953ZM30.9531 8.49219C29.8854 8.49219 29.3516 9.83333 29.3516 12.5156C29.3516 15.0417 29.875 16.3047 30.9219 16.3047C31.9427 16.3047 32.4531 15.0026 32.4531 12.3984C32.4531 9.79427 31.9531 8.49219 30.9531 8.49219ZM38.8594 12.4766C38.0625 12.4766 37.4193 12.224 36.9297 11.7188C36.4453 11.2135 36.2031 10.5339 36.2031 9.67969C36.2031 8.7474 36.4609 8.00781 36.9766 7.46094C37.4974 6.91406 38.1901 6.64062 39.0547 6.64062C39.8828 6.64062 40.5286 6.88802 40.9922 7.38281C41.4609 7.8776 41.6953 8.57292 41.6953 9.46875C41.6953 10.3906 41.4375 11.1224 40.9219 11.6641C40.4062 12.2057 39.7188 12.4766 38.8594 12.4766ZM39.0078 8.01562C38.2474 8.01562 37.8672 8.54427 37.8672 9.60156C37.8672 10.6016 38.2292 11.1016 38.9531 11.1016C39.6927 11.1016 40.0625 10.5807 40.0625 9.53906C40.0625 8.52344 39.7109 8.01562 39.0078 8.01562ZM47.0391 6.79688L39.7422 18H37.8359L45.1172 6.79688H47.0391ZM45.8359 18.1562C45.0391 18.1562 44.3958 17.9036 43.9062 17.3984C43.4219 16.8932 43.1797 16.2135 43.1797 15.3594C43.1797 14.4271 43.4375 13.6875 43.9531 13.1406C44.474 12.5938 45.1667 12.3203 46.0312 12.3203C46.8646 12.3203 47.513 12.5651 47.9766 13.0547C48.4401 13.5443 48.6719 14.237 48.6719 15.1328C48.6719 16.0547 48.4141 16.7891 47.8984 17.3359C47.3828 17.8828 46.6953 18.1562 45.8359 18.1562ZM45.9609 13.6953C45.2057 13.6953 44.8281 14.224 44.8281 15.2812C44.8281 16.2812 45.1953 16.7812 45.9297 16.7812C46.6693 16.7812 47.0391 16.2604 47.0391 15.2188C47.0391 14.7344 46.9401 14.3594 46.7422 14.0938C46.5443 13.8281 46.2839 13.6953 45.9609 13.6953Z" fill="white"/>
</g>
</svg>
