<svg width="112" height="53" viewBox="0 0 112 53" fill="none" xmlns="http://www.w3.org/2000/svg">
<g filter="url(#filter0_d_4_228)">
<path d="M11.6366 24.168C10.1806 24.168 8.78063 23.9347 7.43663 23.468C6.11129 22.9827 5.08463 22.3667 4.35663 21.62L5.16863 20.024C5.85929 20.696 6.78329 21.2653 7.94063 21.732C9.11663 22.18 10.3486 22.404 11.6366 22.404C12.8686 22.404 13.8673 22.2547 14.6326 21.956C15.4166 21.6387 15.986 21.2187 16.3406 20.696C16.714 20.1733 16.9006 19.5947 16.9006 18.96C16.9006 18.1947 16.6766 17.5787 16.2286 17.112C15.7993 16.6453 15.23 16.2813 14.5206 16.02C13.8113 15.74 13.0273 15.4973 12.1686 15.292C11.31 15.0867 10.4513 14.872 9.59263 14.648C8.73396 14.4053 7.94063 14.088 7.21263 13.696C6.50329 13.304 5.92463 12.7907 5.47663 12.156C5.04729 11.5027 4.83263 10.6533 4.83263 9.608C4.83263 8.63733 5.08463 7.75067 5.58863 6.948C6.11129 6.12667 6.90463 5.47333 7.96863 4.988C9.03263 4.484 10.3953 4.232 12.0566 4.232C13.158 4.232 14.25 4.39067 15.3326 4.708C16.4153 5.00667 17.3486 5.42667 18.1326 5.968L17.4326 7.62C16.5926 7.06 15.6966 6.64933 14.7446 6.388C13.8113 6.12667 12.906 5.996 12.0286 5.996C10.8526 5.996 9.88196 6.15467 9.11663 6.472C8.35129 6.78933 7.78196 7.21867 7.40863 7.76C7.05396 8.28267 6.87663 8.88 6.87663 9.552C6.87663 10.3173 7.09129 10.9333 7.52063 11.4C7.96863 11.8667 8.54729 12.2307 9.25663 12.492C9.98463 12.7533 10.778 12.9867 11.6366 13.192C12.4953 13.3973 13.3446 13.6213 14.1846 13.864C15.0433 14.1067 15.8273 14.424 16.5366 14.816C17.2646 15.1893 17.8433 15.6933 18.2726 16.328C18.7206 16.9627 18.9446 17.7933 18.9446 18.82C18.9446 19.772 18.6833 20.6587 18.1606 21.48C17.638 22.2827 16.8353 22.936 15.7526 23.44C14.6886 23.9253 13.3166 24.168 11.6366 24.168ZM26.2592 24V4.4H33.5952C35.2565 4.4 36.6845 4.67067 37.8792 5.212C39.0739 5.73467 39.9885 6.5 40.6232 7.508C41.2765 8.49733 41.6032 9.70133 41.6032 11.12C41.6032 12.5013 41.2765 13.696 40.6232 14.704C39.9885 15.6933 39.0739 16.4587 37.8792 17C36.6845 17.5413 35.2565 17.812 33.5952 17.812H27.4072L28.3312 16.832V24H26.2592ZM28.3312 17L27.4072 15.992H33.5392C35.4992 15.992 36.9832 15.572 37.9912 14.732C39.0179 13.8733 39.5312 12.6693 39.5312 11.12C39.5312 9.552 39.0179 8.33867 37.9912 7.48C36.9832 6.62133 35.4992 6.192 33.5392 6.192H27.4072L28.3312 5.212V17ZM44.763 24L53.723 4.4H55.767L64.727 24H62.543L54.311 5.604H55.151L46.919 24H44.763ZM48.291 18.764L48.907 17.084H60.303L60.919 18.764H48.291ZM79.0079 24.168C77.5332 24.168 76.1706 23.9253 74.9199 23.44C73.6692 22.936 72.5866 22.236 71.6719 21.34C70.7572 20.444 70.0386 19.3893 69.5159 18.176C69.0119 16.9627 68.7599 15.6373 68.7599 14.2C68.7599 12.7627 69.0119 11.4373 69.5159 10.224C70.0386 9.01067 70.7572 7.956 71.6719 7.06C72.6052 6.164 73.6972 5.47333 74.9479 4.988C76.1986 4.484 77.5612 4.232 79.0359 4.232C80.4546 4.232 81.7892 4.47467 83.0399 4.96C84.2906 5.42667 85.3452 6.136 86.2039 7.088L84.8879 8.404C84.0852 7.58267 83.1986 6.99467 82.2279 6.64C81.2572 6.26667 80.2119 6.08 79.0919 6.08C77.9159 6.08 76.8239 6.28533 75.8159 6.696C74.8079 7.088 73.9306 7.65733 73.1839 8.404C72.4372 9.132 71.8492 9.99067 71.4199 10.98C71.0092 11.9507 70.8039 13.024 70.8039 14.2C70.8039 15.376 71.0092 16.4587 71.4199 17.448C71.8492 18.4187 72.4372 19.2773 73.1839 20.024C73.9306 20.752 74.8079 21.3213 75.8159 21.732C76.8239 22.124 77.9159 22.32 79.0919 22.32C80.2119 22.32 81.2572 22.1333 82.2279 21.76C83.1986 21.3867 84.0852 20.7893 84.8879 19.968L86.2039 21.284C85.3452 22.236 84.2906 22.9547 83.0399 23.44C81.7892 23.9253 80.4452 24.168 79.0079 24.168ZM95.2689 13.164H105.629V14.928H95.2689V13.164ZM95.4929 22.208H107.281V24H93.4209V4.4H106.861V6.192H95.4929V22.208ZM13.2584 48.192C11.5944 48.192 9.99438 47.9253 8.45838 47.392C6.94371 46.8373 5.77038 46.1333 4.93838 45.28L5.86638 43.456C6.65571 44.224 7.71171 44.8747 9.03438 45.408C10.3784 45.92 11.7864 46.176 13.2584 46.176C14.6664 46.176 15.8077 46.0053 16.6824 45.664C17.5784 45.3013 18.229 44.8213 18.6344 44.224C19.061 43.6267 19.2744 42.9653 19.2744 42.24C19.2744 41.3653 19.0184 40.6613 18.5064 40.128C18.0157 39.5947 17.365 39.1787 16.5544 38.88C15.7437 38.56 14.8477 38.2827 13.8664 38.048C12.885 37.8133 11.9037 37.568 10.9224 37.312C9.94104 37.0347 9.03438 36.672 8.20238 36.224C7.39171 35.776 6.73038 35.1893 6.21838 34.464C5.72771 33.7173 5.48238 32.7467 5.48238 31.552C5.48238 30.4427 5.77038 29.4293 6.34638 28.512C6.94371 27.5733 7.85038 26.8267 9.06638 26.272C10.2824 25.696 11.8397 25.408 13.7384 25.408C14.997 25.408 16.245 25.5893 17.4824 25.952C18.7197 26.2933 19.7864 26.7733 20.6824 27.392L19.8824 29.28C18.9224 28.64 17.8984 28.1707 16.8104 27.872C15.7437 27.5733 14.709 27.424 13.7064 27.424C12.3624 27.424 11.253 27.6053 10.3784 27.968C9.50371 28.3307 8.85304 28.8213 8.42638 29.44C8.02104 30.0373 7.81838 30.72 7.81838 31.488C7.81838 32.3627 8.06371 33.0667 8.55438 33.6C9.06638 34.1333 9.72771 34.5493 10.5384 34.848C11.3704 35.1467 12.277 35.4133 13.2584 35.648C14.2397 35.8827 15.2104 36.1387 16.1704 36.416C17.1517 36.6933 18.0477 37.056 18.8584 37.504C19.6904 37.9307 20.3517 38.5067 20.8424 39.232C21.3544 39.9573 21.6104 40.9067 21.6104 42.08C21.6104 43.168 21.3117 44.1813 20.7144 45.12C20.117 46.0373 19.1997 46.784 17.9624 47.36C16.7464 47.9147 15.1784 48.192 13.2584 48.192ZM46.3539 25.6H48.6899V48H46.3539V25.6ZM32.3379 48H29.9699V25.6H32.3379V48ZM46.5779 37.664H32.0819V35.584H46.5779V37.664ZM68.9931 48.192C67.3078 48.192 65.7398 47.9147 64.2891 47.36C62.8598 46.784 61.6118 45.984 60.5451 44.96C59.4998 43.9147 58.6785 42.7093 58.0811 41.344C57.5051 39.9573 57.2171 38.4427 57.2171 36.8C57.2171 35.1573 57.5051 33.6533 58.0811 32.288C58.6785 30.9013 59.4998 29.696 60.5451 28.672C61.6118 27.6267 62.8598 26.8267 64.2891 26.272C65.7185 25.696 67.2865 25.408 68.9931 25.408C70.6785 25.408 72.2358 25.696 73.6651 26.272C75.0945 26.8267 76.3318 27.616 77.3771 28.64C78.4438 29.664 79.2651 30.8693 79.8411 32.256C80.4385 33.6427 80.7371 35.1573 80.7371 36.8C80.7371 38.4427 80.4385 39.9573 79.8411 41.344C79.2651 42.7307 78.4438 43.936 77.3771 44.96C76.3318 45.984 75.0945 46.784 73.6651 47.36C72.2358 47.9147 70.6785 48.192 68.9931 48.192ZM68.9931 46.08C70.3371 46.08 71.5745 45.856 72.7051 45.408C73.8571 44.9387 74.8491 44.288 75.6811 43.456C76.5345 42.6027 77.1958 41.6213 77.6651 40.512C78.1345 39.3813 78.3691 38.144 78.3691 36.8C78.3691 35.456 78.1345 34.2293 77.6651 33.12C77.1958 31.9893 76.5345 31.008 75.6811 30.176C74.8491 29.3227 73.8571 28.672 72.7051 28.224C71.5745 27.7547 70.3371 27.52 68.9931 27.52C67.6491 27.52 66.4011 27.7547 65.2491 28.224C64.0971 28.672 63.0945 29.3227 62.2411 30.176C61.4091 31.008 60.7478 31.9893 60.2571 33.12C59.7878 34.2293 59.5531 35.456 59.5531 36.8C59.5531 38.1227 59.7878 39.3493 60.2571 40.48C60.7478 41.6107 61.4091 42.6027 62.2411 43.456C63.0945 44.288 64.0971 44.9387 65.2491 45.408C66.4011 45.856 67.6491 46.08 68.9931 46.08ZM89.2449 48V25.6H97.6289C99.5275 25.6 101.16 25.9093 102.525 26.528C103.89 27.1253 104.936 28 105.661 29.152C106.408 30.2827 106.781 31.6587 106.781 33.28C106.781 34.8587 106.408 36.224 105.661 37.376C104.936 38.5067 103.89 39.3813 102.525 40C101.16 40.6187 99.5275 40.928 97.6289 40.928H90.5569L91.6129 39.808V48H89.2449ZM91.6129 40L90.5569 38.848H97.5649C99.8049 38.848 101.501 38.368 102.653 37.408C103.826 36.4267 104.413 35.0507 104.413 33.28C104.413 31.488 103.826 30.1013 102.653 29.12C101.501 28.1387 99.8049 27.648 97.5649 27.648H90.5569L91.6129 26.528V40Z" fill="white"/>
</g>
<defs>
<filter id="filter0_d_4_228" x="0.356628" y="0.231998" width="110.924" height="51.96" filterUnits="userSpaceOnUse" color-interpolation-filters="sRGB">
<feFlood flood-opacity="0" result="BackgroundImageFix"/>
<feColorMatrix in="SourceAlpha" type="matrix" values="0 0 0 0 0 0 0 0 0 0 0 0 0 0 0 0 0 0 127 0" result="hardAlpha"/>
<feOffset/>
<feGaussianBlur stdDeviation="2"/>
<feComposite in2="hardAlpha" operator="out"/>
<feColorMatrix type="matrix" values="0 0 0 0 0 0 0 0 0 0 0 0 0 0 0 0 0 0 0.25 0"/>
<feBlend mode="normal" in2="BackgroundImageFix" result="effect1_dropShadow_4_228"/>
<feBlend mode="normal" in="SourceGraphic" in2="effect1_dropShadow_4_228" result="shape"/>
</filter>
</defs>
</svg>
